<?xml version="1.0" standalone="no"?>
<!DOCTYPE svg PUBLIC "-//W3C//DTD SVG 20010904//EN"
 "http://www.w3.org/TR/2001/REC-SVG-20010904/DTD/svg10.dtd">
<svg version="1.0" xmlns="http://www.w3.org/2000/svg"
 width="500.000000pt" height="500.000000pt" viewBox="0 0 500.000000 500.000000"
 preserveAspectRatio="xMidYMid meet">

<g transform="translate(0.000000,500.000000) scale(0.100000,-0.100000)"
fill="#000000" stroke="none">
<path d="M818 4446 c-106 -38 -191 -114 -241 -216 l-32 -65 -3 -1650 -2 -1650
21 -61 c42 -118 128 -204 243 -244 59 -20 78 -20 1698 -20 1596 0 1640 0 1694
19 114 40 202 129 242 244 l22 62 0 1636 c0 1755 3 1655 -49 1756 -29 58 -104
129 -175 166 l-61 32 -1660 2 c-1349 2 -1667 0 -1697 -11z m267 -355 c11 -10
119 -102 240 -206 121 -103 228 -197 238 -208 20 -22 22 -63 4 -93 -21 -37
-500 -443 -531 -450 -53 -12 -107 51 -93 108 4 16 78 87 207 197 110 95 202
177 205 181 3 5 -77 79 -177 165 -101 87 -195 170 -210 186 -38 40 -37 81 2
121 26 25 36 29 62 24 18 -3 41 -14 53 -25z m1000 -816 c32 -31 32 -75 1 -112
l-24 -28 -269 -3 c-288 -2 -304 0 -332 49 -17 31 -9 71 21 99 21 19 34 20 300
20 l279 0 24 -25z m-265 -775 l0 -200 -30 0 c-20 0 -30 5 -30 15 0 8 -4 15 -9
15 -5 0 -14 -7 -21 -15 -20 -24 -87 -19 -115 9 -55 55 -58 175 -5 228 30 30
83 38 121 18 18 -10 19 -7 19 60 l0 70 35 0 35 0 0 -200z m1850 30 l0 -170 40
0 c38 0 40 -2 40 -30 l0 -30 -121 0 -120 0 3 28 c3 24 7 27 46 30 l42 3 0 139
0 139 -42 3 c-39 3 -43 6 -46 31 l-3 27 80 0 81 0 0 -170z m-1612 151 c8 -4
12 -19 10 -32 -4 -30 -46 -39 -65 -14 -25 35 18 70 55 46z m1920 0 c8 -4 12
-19 10 -32 -4 -30 -46 -39 -65 -14 -25 35 18 70 55 46z m-2849 -115 c25 -13
51 -52 51 -76 0 -6 -13 -10 -29 -10 -20 0 -34 8 -45 25 -11 17 -26 25 -46 25
-39 0 -60 -32 -60 -92 0 -54 24 -88 63 -88 13 0 32 9 42 20 19 21 75 28 75 9
0 -6 -16 -27 -35 -46 -34 -34 -38 -35 -92 -31 -47 4 -61 10 -83 35 -52 58 -47
169 11 217 35 30 102 35 148 12z m336 -19 c59 -59 59 -155 0 -214 -28 -28 -40
-33 -83 -33 -35 0 -57 6 -77 22 -53 41 -70 126 -39 191 22 45 59 66 118 67 41
0 53 -5 81 -33z m605 -77 l0 -110 35 0 c32 0 35 -2 35 -30 l0 -30 -110 0 -110
0 0 30 c0 28 2 30 40 30 l41 0 -3 83 -3 82 -37 3 c-33 3 -38 7 -38 28 0 23 2
24 75 24 l75 0 0 -110z m210 90 c0 -21 0 -21 28 0 42 31 108 25 135 -12 17
-23 21 -47 25 -138 l5 -110 -37 0 -36 0 0 99 c0 110 -9 131 -59 131 -45 0 -51
-15 -51 -127 l0 -103 -35 0 -35 0 0 140 0 140 30 0 c23 0 30 -4 30 -20z m419
8 c11 -10 14 -10 18 0 3 6 18 12 34 12 l29 0 0 -152 c0 -134 -2 -157 -20 -185
-33 -54 -138 -68 -189 -25 -17 15 -18 20 -7 34 12 17 15 17 46 2 42 -21 80
-10 98 29 16 34 11 43 -16 28 -35 -19 -87 -13 -115 13 -26 24 -47 81 -47 126
1 35 34 106 57 119 25 14 96 14 112 -1z m670 -2 c25 -13 51 -52 51 -76 0 -6
-13 -10 -29 -10 -20 0 -34 8 -45 25 -11 17 -26 25 -46 25 -39 0 -60 -32 -60
-92 0 -54 24 -88 63 -88 13 0 32 9 42 20 19 21 75 28 75 9 0 -6 -16 -27 -35
-46 -34 -34 -38 -35 -92 -31 -47 4 -61 10 -83 35 -52 58 -47 169 11 217 35 30
102 35 148 12z m621 -96 l0 -110 35 0 c32 0 35 -2 35 -30 l0 -30 -110 0 -110
0 0 30 c0 28 2 30 40 30 l41 0 -3 83 -3 82 -37 3 c-33 3 -38 7 -38 28 0 23 2
24 75 24 l75 0 0 -110z m-880 -5 l0 -25 -105 0 -105 0 0 25 0 25 105 0 105 0
0 -25z"/>
<path d="M1656 2508 c-23 -33 -21 -113 4 -138 22 -22 42 -25 71 -10 16 9 19
22 19 80 0 58 -3 71 -19 80 -31 16 -59 12 -75 -12z"/>
<path d="M1336 2508 c-23 -33 -21 -113 4 -138 46 -46 100 -9 100 68 0 60 -21
92 -60 92 -18 0 -34 -8 -44 -22z"/>
<path d="M2627 2517 c-20 -14 -32 -74 -23 -111 13 -53 67 -74 99 -38 24 27 23
123 -1 145 -22 20 -52 22 -75 4z"/>
</g>
</svg>
