<?xml version="1.0" standalone="no"?>
<!DOCTYPE svg PUBLIC "-//W3C//DTD SVG 20010904//EN"
 "http://www.w3.org/TR/2001/REC-SVG-20010904/DTD/svg10.dtd">
<svg version="1.0" xmlns="http://www.w3.org/2000/svg"
 width="500.000000pt" height="500.000000pt" viewBox="0 0 500.000000 500.000000"
 preserveAspectRatio="xMidYMid meet">

<g transform="translate(0.000000,500.000000) scale(0.100000,-0.100000)"
fill="#000000" stroke="none">
<path d="M2087 3656 c-90 -32 -163 -107 -193 -198 -24 -72 -16 -178 17 -246
l27 -53 -34 -37 c-38 -40 -104 -164 -104 -193 0 -10 -23 -34 -55 -56 -30 -21
-55 -45 -55 -53 0 -8 25 -32 55 -53 31 -21 55 -46 55 -55 0 -10 16 -50 35 -91
41 -85 115 -163 194 -203 l53 -27 -41 -20 c-49 -26 -59 -40 -37 -57 22 -16 66
-4 111 31 32 24 85 34 85 16 0 -4 -11 -25 -25 -45 -29 -42 -32 -64 -9 -73 21
-8 60 31 81 83 13 32 24 44 38 44 21 0 107 22 136 34 13 6 18 -1 23 -31 17
-93 72 -169 106 -148 15 9 12 41 -4 54 -19 16 -46 96 -46 138 0 38 1 38 40 18
32 -17 38 -33 42 -110 2 -40 7 -51 22 -53 25 -5 36 14 36 68 l0 45 118 0 c108
0 122 2 173 28 70 34 152 120 184 191 56 126 55 251 -1 375 -31 70 -28 78 40
110 60 29 104 28 112 -3 8 -35 46 -66 86 -72 27 -5 40 -1 65 20 37 31 46 69
28 113 -24 57 -111 80 -146 37 -7 -9 -31 -14 -63 -14 -55 0 -126 -27 -163 -62
l-22 -20 -46 37 c-32 26 -44 43 -40 54 43 109 7 247 -82 320 -37 31 -110 61
-146 61 -10 0 -32 11 -49 25 -39 33 -87 33 -127 -1 -23 -19 -31 -34 -31 -59 0
-18 -6 -38 -14 -45 -12 -9 -18 -4 -35 28 -27 54 -111 127 -168 146 -57 19
-174 20 -226 2z m228 -67 c53 -28 81 -55 113 -109 25 -41 27 -56 31 -172 l3
-128 -48 -45 -49 -44 -106 -1 c-120 0 -169 13 -229 60 -84 67 -118 217 -70
315 64 132 228 189 355 124z m335 -54 c20 -24 3 -57 -28 -53 -27 3 -39 26 -28
54 7 18 40 18 56 -1z m177 -61 c80 -46 121 -145 101 -240 -8 -37 -13 -44 -26
-38 -10 4 -42 16 -72 26 l-55 19 0 72 c-1 60 -6 81 -28 121 -37 66 -36 80 5
72 17 -3 51 -18 75 -32z m-251 -45 c3 -6 28 -9 58 -7 50 3 51 2 68 -32 18 -35
23 -86 12 -127 -5 -19 -13 -23 -49 -23 -23 0 -62 -7 -85 -15 -23 -8 -46 -15
-51 -15 -13 0 -11 187 1 211 12 21 35 25 46 8z m232 -263 c191 -51 323 -258
283 -444 -26 -122 -111 -231 -207 -265 -137 -48 -321 2 -446 121 -106 101
-141 219 -99 343 38 114 133 210 240 243 60 19 162 19 229 2z m586 -42 c8 -22
-12 -54 -33 -54 -25 0 -44 25 -36 49 10 32 57 35 69 5z m-1480 -134 c-20 -78
-17 -258 6 -345 10 -38 16 -72 15 -73 -6 -7 -37 47 -61 105 -41 100 -29 251
26 342 12 18 23 32 25 30 2 -2 -3 -29 -11 -59z m343 36 c1 -1 -4 -26 -12 -56
-8 -30 -15 -99 -15 -152 0 -114 28 -218 85 -312 43 -71 39 -76 -63 -76 l-73 0
-30 64 c-46 99 -70 192 -76 303 -5 89 7 208 23 235 3 5 153 -1 161 -6z"/>
<path d="M2538 3043 c-22 -5 -35 -50 -21 -72 16 -26 59 -26 77 1 20 29 20 34
-4 58 -20 20 -22 21 -52 13z m27 -23 c3 -5 -1 -10 -9 -10 -9 0 -16 5 -16 10 0
6 4 10 9 10 6 0 13 -4 16 -10z"/>
<path d="M2665 2867 c-9 -35 10 -66 52 -83 39 -17 68 -11 83 16 13 25 -5 36
-26 16 -8 -9 -21 -16 -28 -16 -24 0 -50 28 -51 56 -2 36 -22 43 -30 11z"/>
<path d="M2922 2808 c-7 -7 -12 -21 -12 -33 0 -29 19 -45 52 -45 36 0 56 36
39 69 -13 23 -59 29 -79 9z m46 -9 c-2 -6 -8 -10 -13 -10 -5 0 -11 4 -13 10
-2 6 4 11 13 11 9 0 15 -5 13 -11z"/>
<path d="M3708 2079 c-27 -15 -23 -57 6 -65 56 -14 92 46 40 66 -30 12 -25 12
-46 -1z"/>
<path d="M1237 2044 c-4 -4 -7 -81 -7 -171 0 -153 1 -163 19 -163 10 0 24 7
31 15 11 13 15 12 37 -5 30 -24 54 -25 92 -5 41 21 57 70 53 163 -3 47 -49 92
-96 92 -19 0 -38 -4 -41 -10 -14 -22 -24 -8 -27 38 -3 42 -6 47 -28 50 -14 2
-29 0 -33 -4z m143 -150 c8 -8 13 -35 13 -59 0 -24 -5 -51 -13 -59 -16 -21
-66 -21 -74 0 -8 21 -8 119 1 127 12 13 61 7 73 -9z"/>
<path d="M1532 1958 c-13 -13 -17 -202 -6 -232 7 -19 63 -22 65 -3 1 6 2 40 3
73 2 71 16 94 57 94 36 0 60 40 39 65 -25 30 -64 12 -85 -40 -8 -18 -9 -17
-13 10 -5 42 -35 58 -60 33z"/>
<path d="M1781 1957 c-36 -21 -50 -56 -51 -125 0 -60 2 -66 34 -98 28 -28 42
-34 75 -34 62 0 96 22 116 74 22 56 13 125 -19 163 -18 21 -33 27 -77 30 -34
2 -63 -2 -78 -10z m97 -49 c15 -15 16 -112 2 -139 -6 -11 -21 -19 -35 -19 -31
0 -45 26 -45 85 0 25 5 55 10 66 12 21 50 25 68 7z"/>
<path d="M2031 1961 c-16 -10 -17 -113 -1 -172 27 -101 120 -119 157 -31 l16
37 8 -29 c27 -97 126 -84 156 21 21 72 26 158 10 171 -36 30 -57 -15 -57 -120
0 -49 -20 -81 -44 -72 -18 7 -26 37 -26 99 0 67 -8 93 -32 100 -36 12 -48 -12
-48 -96 0 -86 -15 -117 -49 -99 -21 11 -31 51 -31 124 0 66 -22 91 -59 67z"/>
<path d="M2483 1960 c-25 -10 -43 -39 -43 -68 0 -33 32 -62 80 -73 73 -17 94
-50 43 -70 -22 -8 -32 -6 -55 11 -52 39 -89 10 -44 -35 20 -20 35 -25 76 -25
55 0 104 20 114 45 22 58 -5 99 -74 111 -47 9 -70 22 -70 40 0 31 65 37 83 7
9 -15 43 -17 52 -3 11 18 -4 47 -31 58 -29 14 -99 15 -131 2z"/>
<path d="M2744 1936 c-36 -36 -36 -37 -32 -106 3 -56 8 -74 27 -94 52 -55 191
-40 191 20 0 22 -29 28 -49 10 -25 -23 -78 -21 -91 3 -23 45 -15 51 69 51 89
0 94 4 80 69 -11 52 -39 74 -103 79 -53 4 -57 3 -92 -32z m118 -30 c4 -6 8
-19 8 -28 0 -15 -9 -18 -45 -18 -38 0 -45 3 -45 19 0 40 60 59 82 27z"/>
<path d="M3011 1951 c-12 -21 -15 -198 -5 -225 8 -21 60 -21 68 0 3 9 6 44 6
78 0 68 10 86 51 86 34 0 53 23 45 55 -12 46 -67 28 -91 -30 -7 -17 -9 -15
-14 15 -7 42 -43 54 -60 21z"/>
<path d="M3460 1963 c-48 -18 -66 -67 -29 -78 15 -5 29 1 48 19 32 31 56 33
71 7 20 -39 12 -48 -51 -60 -34 -6 -70 -18 -80 -27 -23 -21 -26 -86 -5 -103
26 -22 84 -25 112 -6 16 10 29 13 33 8 10 -16 35 -21 54 -11 14 7 17 24 17
109 0 93 -2 102 -25 124 -20 21 -34 25 -77 24 -29 0 -60 -3 -68 -6z m100 -161
c0 -37 -17 -52 -56 -52 -59 0 -52 65 9 73 17 2 35 5 40 5 4 1 7 -11 7 -26z"/>
<path d="M3712 1962 c-9 -7 -12 -39 -10 -128 l3 -119 30 0 30 0 3 114 c3 131
-10 162 -56 133z"/>
<path d="M3220 1885 c-21 -25 1 -36 66 -33 51 3 59 6 59 23 0 17 -8 20 -56 23
-41 2 -59 -1 -69 -13z"/>
</g>
</svg>
